<svg xmlns="http://www.w3.org/2000/svg" width="526.105" height="557.774">
  <g stroke="#000" stroke-width="8">
    <g fill-rule="evenodd" stroke-linejoin="round">
      <path fill="#33449d" d="M4 97.553V395.19L211.242 514.36V315.935l-69.08-39.723v-99.213z"/>
      <path fill="#ffeb01" d="M4 97.553L272.647 4l207.242 119.17-176.54 61.477-69.08-39.723-92.108 32.075z"/>
      <path fill="#ff1200" d="M211.242 514.36l268.647-93.553V123.17l-176.54 61.478v99.212l-92.107 32.076z"/>
      <path fill="#c7c7c6" d="M142.161 176.999v99.213l69.08 39.723 92.108-32.076v-99.212l-69.08-39.723z"/>
    </g>
    <g fill="none">
      <path d="M103.783 452.568v-99.212l38.378 22.068v-99.212M103.783 353.356L73.081 335.7v-49.606L4 246.372M280.322 490.303v-70.866l130.486-45.44V225.18l69.08-24.057"/>
      <path d="M410.808 296.045l-107.459 37.42V283.86M73.08 73.496l69.081 39.723 199.566-69.496M249.62 75.798l69.08 39.723-84.431 29.403M142.161 276.212l92.108-32.076 69.08 39.723M234.269 144.924v99.212"/>
    </g>
  </g>
  <g stroke="#000" stroke-linejoin="round" stroke-width="8">
    <path fill="none" d="M433.835 454.561l-69.08-39.723m69.08 138.936V454.56l88.27-30.738"/>
    <path fill="#33449d" fill-rule="evenodd" d="M364.754 414.838v99.213l69.08 39.723V454.56z"/>
    <path fill="#ff1200" fill-rule="evenodd" d="M433.835 454.561l88.27-30.738v99.212l-88.27 30.739z"/>
    <path fill="#ffeb01" fill-rule="evenodd" d="M364.754 414.838l88.27-30.739 69.08 39.724-88.27 30.738z"/>
  </g>
</svg>
